<svg id="Layer_1" enable-background="new 0 0 512.123 512.123" height="512" viewBox="0 0 512.123 512.123" width="512" xmlns="http://www.w3.org/2000/svg"><g><path d="m489.479 216.216c-7.273 0-13.853-4.992-15.57-12.381-.129-.557-.264-1.107-.405-1.662-2.183-8.563 2.988-17.274 11.551-19.457 8.56-2.186 17.273 2.988 19.457 11.551.198.775.385 1.544.566 2.323 2.329 10.018-5.28 19.626-15.599 19.626z"/></g><g><path d="m255.868 512.123c-113.103 0-219.419-76.179-248.491-195.376-26.939-110.448 22.016-220.659 112.386-277.407 129.439-81.282 298.47-31.445 365.217 102.026 3.952 7.903.75 17.514-7.154 21.467-7.902 3.951-17.514.75-21.466-7.154-77.505-154.979-299.232-168.043-391.686-15.943-64.155 105.546-30.481 243.608 75.064 307.763 73.388 44.608 167.261 43.033 239.156-4.013 63.014-41.212 102.596-113.188 101.193-191.202-.159-8.835 6.875-16.126 15.71-16.285 8.842-.147 16.126 6.875 16.285 15.71 2.55 141.897-111.855 260.381-256.214 260.414z"/></g><path d="m356.461 210.225c4.083-4.969 4.791-11.972 1.736-17.68-1.612-3.013-.248-1.225-34.797-35.773-6.248-6.249-16.379-6.249-22.627 0-6.249 6.248-6.249 16.379 0 22.627l4.686 4.687h-105.372c-26.467 0-48 21.533-48 48 0 8.836 7.164 16 16 16s16-7.164 16-16c0-8.822 7.178-16 16-16h105.373l-4.686 4.687c-10.109 10.109-2.811 27.313 11.313 27.313 4.095 0 8.189-1.562 11.313-4.687 35.095-35.095 32.325-32.275 33.061-33.174z"/><path d="m344.087 264.085c-8.836 0-16 7.164-16 16 0 8.822-7.178 16-16 16h-105.373l4.686-4.687c6.249-6.248 6.249-16.379 0-22.627-6.248-6.249-16.379-6.249-22.627 0-34.371 34.371-33.826 33.231-35.468 37.193-1.584 3.829-1.66 8.23 0 12.242 1.661 4.006 1.194 2.918 35.468 37.193 6.247 6.248 16.379 6.249 22.627 0 6.249-6.248 6.249-16.379 0-22.627l-4.686-4.687h105.373c26.467 0 48-21.533 48-48 0-8.836-7.164-16-16-16z"/></svg>